<mxfile host="app.diagrams.net" modified="2024-05-23T15:32:18.546Z" agent="Mozilla/5.0 (Windows NT 10.0; Win64; x64) AppleWebKit/537.36 (KHTML, like Gecko) Chrome/124.0.0.0 Safari/537.36" etag="2EPr8lea4RV7_fTkLBIn" version="21.1.1" type="device">
  <diagram name="Page-1" id="nyae6AJYgMlLgdOgS10u">
    <mxGraphModel dx="1909" dy="964" grid="1" gridSize="10" guides="1" tooltips="1" connect="1" arrows="1" fold="1" page="1" pageScale="1" pageWidth="850" pageHeight="1100" math="0" shadow="0">
      <root>
        <mxCell id="0" />
        <mxCell id="1" parent="0" />
        <mxCell id="PEznFeICWbNwD7jS4ETO-5" style="edgeStyle=orthogonalEdgeStyle;rounded=0;orthogonalLoop=1;jettySize=auto;html=1;" edge="1" parent="1" source="PEznFeICWbNwD7jS4ETO-1" target="PEznFeICWbNwD7jS4ETO-3">
          <mxGeometry relative="1" as="geometry" />
        </mxCell>
        <mxCell id="PEznFeICWbNwD7jS4ETO-8" style="edgeStyle=orthogonalEdgeStyle;rounded=0;orthogonalLoop=1;jettySize=auto;html=1;" edge="1" parent="1" source="PEznFeICWbNwD7jS4ETO-1" target="PEznFeICWbNwD7jS4ETO-7">
          <mxGeometry relative="1" as="geometry" />
        </mxCell>
        <mxCell id="PEznFeICWbNwD7jS4ETO-1" value="1" style="ellipse;whiteSpace=wrap;html=1;aspect=fixed;" vertex="1" parent="1">
          <mxGeometry x="390" y="30" width="40" height="40" as="geometry" />
        </mxCell>
        <mxCell id="PEznFeICWbNwD7jS4ETO-6" style="edgeStyle=orthogonalEdgeStyle;rounded=0;orthogonalLoop=1;jettySize=auto;html=1;" edge="1" parent="1" source="PEznFeICWbNwD7jS4ETO-3" target="PEznFeICWbNwD7jS4ETO-4">
          <mxGeometry relative="1" as="geometry">
            <Array as="points">
              <mxPoint x="60" y="940" />
            </Array>
          </mxGeometry>
        </mxCell>
        <mxCell id="PEznFeICWbNwD7jS4ETO-3" value="2" style="ellipse;whiteSpace=wrap;html=1;aspect=fixed;" vertex="1" parent="1">
          <mxGeometry x="40" y="170" width="40" height="40" as="geometry" />
        </mxCell>
        <mxCell id="PEznFeICWbNwD7jS4ETO-4" value="21" style="ellipse;whiteSpace=wrap;html=1;aspect=fixed;" vertex="1" parent="1">
          <mxGeometry x="390" y="920" width="40" height="40" as="geometry" />
        </mxCell>
        <mxCell id="PEznFeICWbNwD7jS4ETO-10" style="edgeStyle=orthogonalEdgeStyle;rounded=0;orthogonalLoop=1;jettySize=auto;html=1;" edge="1" parent="1" source="PEznFeICWbNwD7jS4ETO-7" target="PEznFeICWbNwD7jS4ETO-9">
          <mxGeometry relative="1" as="geometry" />
        </mxCell>
        <mxCell id="PEznFeICWbNwD7jS4ETO-7" value="3" style="ellipse;whiteSpace=wrap;html=1;aspect=fixed;" vertex="1" parent="1">
          <mxGeometry x="540" y="30" width="40" height="40" as="geometry" />
        </mxCell>
        <mxCell id="PEznFeICWbNwD7jS4ETO-13" style="edgeStyle=orthogonalEdgeStyle;rounded=0;orthogonalLoop=1;jettySize=auto;html=1;" edge="1" parent="1" source="PEznFeICWbNwD7jS4ETO-9" target="PEznFeICWbNwD7jS4ETO-12">
          <mxGeometry relative="1" as="geometry" />
        </mxCell>
        <mxCell id="PEznFeICWbNwD7jS4ETO-14" style="edgeStyle=orthogonalEdgeStyle;rounded=0;orthogonalLoop=1;jettySize=auto;html=1;" edge="1" parent="1" source="PEznFeICWbNwD7jS4ETO-9" target="PEznFeICWbNwD7jS4ETO-11">
          <mxGeometry relative="1" as="geometry" />
        </mxCell>
        <mxCell id="PEznFeICWbNwD7jS4ETO-9" value="4" style="ellipse;whiteSpace=wrap;html=1;aspect=fixed;" vertex="1" parent="1">
          <mxGeometry x="540" y="170" width="40" height="40" as="geometry" />
        </mxCell>
        <mxCell id="PEznFeICWbNwD7jS4ETO-17" style="edgeStyle=orthogonalEdgeStyle;rounded=0;orthogonalLoop=1;jettySize=auto;html=1;" edge="1" parent="1" source="PEznFeICWbNwD7jS4ETO-11" target="PEznFeICWbNwD7jS4ETO-16">
          <mxGeometry relative="1" as="geometry">
            <Array as="points">
              <mxPoint x="560" y="320" />
              <mxPoint x="500" y="320" />
            </Array>
          </mxGeometry>
        </mxCell>
        <mxCell id="PEznFeICWbNwD7jS4ETO-52" style="edgeStyle=orthogonalEdgeStyle;rounded=0;orthogonalLoop=1;jettySize=auto;html=1;" edge="1" parent="1" source="PEznFeICWbNwD7jS4ETO-11" target="PEznFeICWbNwD7jS4ETO-51">
          <mxGeometry relative="1" as="geometry">
            <mxPoint x="800" y="260" as="targetPoint" />
          </mxGeometry>
        </mxCell>
        <mxCell id="PEznFeICWbNwD7jS4ETO-11" value="6" style="ellipse;whiteSpace=wrap;html=1;aspect=fixed;" vertex="1" parent="1">
          <mxGeometry x="540" y="240" width="40" height="40" as="geometry" />
        </mxCell>
        <mxCell id="PEznFeICWbNwD7jS4ETO-15" style="edgeStyle=orthogonalEdgeStyle;rounded=0;orthogonalLoop=1;jettySize=auto;html=1;" edge="1" parent="1" source="PEznFeICWbNwD7jS4ETO-12" target="PEznFeICWbNwD7jS4ETO-11">
          <mxGeometry relative="1" as="geometry" />
        </mxCell>
        <mxCell id="PEznFeICWbNwD7jS4ETO-12" value="5" style="ellipse;whiteSpace=wrap;html=1;aspect=fixed;" vertex="1" parent="1">
          <mxGeometry x="470" y="240" width="40" height="40" as="geometry" />
        </mxCell>
        <mxCell id="PEznFeICWbNwD7jS4ETO-19" style="edgeStyle=orthogonalEdgeStyle;rounded=0;orthogonalLoop=1;jettySize=auto;html=1;" edge="1" parent="1" source="PEznFeICWbNwD7jS4ETO-16" target="PEznFeICWbNwD7jS4ETO-18">
          <mxGeometry relative="1" as="geometry" />
        </mxCell>
        <mxCell id="PEznFeICWbNwD7jS4ETO-16" value="7" style="ellipse;whiteSpace=wrap;html=1;aspect=fixed;" vertex="1" parent="1">
          <mxGeometry x="470" y="360" width="40" height="40" as="geometry" />
        </mxCell>
        <mxCell id="PEznFeICWbNwD7jS4ETO-24" style="edgeStyle=orthogonalEdgeStyle;rounded=0;orthogonalLoop=1;jettySize=auto;html=1;" edge="1" parent="1" source="PEznFeICWbNwD7jS4ETO-18" target="PEznFeICWbNwD7jS4ETO-20">
          <mxGeometry relative="1" as="geometry" />
        </mxCell>
        <mxCell id="PEznFeICWbNwD7jS4ETO-25" style="edgeStyle=orthogonalEdgeStyle;rounded=0;orthogonalLoop=1;jettySize=auto;html=1;entryX=0;entryY=0.5;entryDx=0;entryDy=0;" edge="1" parent="1" source="PEznFeICWbNwD7jS4ETO-18" target="PEznFeICWbNwD7jS4ETO-21">
          <mxGeometry relative="1" as="geometry" />
        </mxCell>
        <mxCell id="PEznFeICWbNwD7jS4ETO-18" value="8" style="ellipse;whiteSpace=wrap;html=1;aspect=fixed;" vertex="1" parent="1">
          <mxGeometry x="390" y="430" width="40" height="40" as="geometry" />
        </mxCell>
        <mxCell id="PEznFeICWbNwD7jS4ETO-27" style="edgeStyle=orthogonalEdgeStyle;rounded=0;orthogonalLoop=1;jettySize=auto;html=1;" edge="1" parent="1" source="PEznFeICWbNwD7jS4ETO-20" target="PEznFeICWbNwD7jS4ETO-4">
          <mxGeometry relative="1" as="geometry" />
        </mxCell>
        <mxCell id="PEznFeICWbNwD7jS4ETO-20" value="9" style="ellipse;whiteSpace=wrap;html=1;aspect=fixed;" vertex="1" parent="1">
          <mxGeometry x="390" y="660" width="40" height="40" as="geometry" />
        </mxCell>
        <mxCell id="PEznFeICWbNwD7jS4ETO-26" style="edgeStyle=orthogonalEdgeStyle;rounded=0;orthogonalLoop=1;jettySize=auto;html=1;" edge="1" parent="1" source="PEznFeICWbNwD7jS4ETO-21" target="PEznFeICWbNwD7jS4ETO-16">
          <mxGeometry relative="1" as="geometry">
            <Array as="points">
              <mxPoint x="560" y="380" />
            </Array>
          </mxGeometry>
        </mxCell>
        <mxCell id="PEznFeICWbNwD7jS4ETO-29" style="edgeStyle=orthogonalEdgeStyle;rounded=0;orthogonalLoop=1;jettySize=auto;html=1;" edge="1" parent="1" source="PEznFeICWbNwD7jS4ETO-21" target="PEznFeICWbNwD7jS4ETO-28">
          <mxGeometry relative="1" as="geometry" />
        </mxCell>
        <mxCell id="PEznFeICWbNwD7jS4ETO-21" value="10" style="ellipse;whiteSpace=wrap;html=1;aspect=fixed;" vertex="1" parent="1">
          <mxGeometry x="540" y="430" width="40" height="40" as="geometry" />
        </mxCell>
        <mxCell id="PEznFeICWbNwD7jS4ETO-32" style="edgeStyle=orthogonalEdgeStyle;rounded=0;orthogonalLoop=1;jettySize=auto;html=1;" edge="1" parent="1" source="PEznFeICWbNwD7jS4ETO-28" target="PEznFeICWbNwD7jS4ETO-31">
          <mxGeometry relative="1" as="geometry" />
        </mxCell>
        <mxCell id="PEznFeICWbNwD7jS4ETO-33" style="edgeStyle=orthogonalEdgeStyle;rounded=0;orthogonalLoop=1;jettySize=auto;html=1;" edge="1" parent="1" source="PEznFeICWbNwD7jS4ETO-28" target="PEznFeICWbNwD7jS4ETO-30">
          <mxGeometry relative="1" as="geometry" />
        </mxCell>
        <mxCell id="PEznFeICWbNwD7jS4ETO-28" value="11" style="ellipse;whiteSpace=wrap;html=1;aspect=fixed;" vertex="1" parent="1">
          <mxGeometry x="540" y="510" width="40" height="40" as="geometry" />
        </mxCell>
        <mxCell id="PEznFeICWbNwD7jS4ETO-36" style="edgeStyle=orthogonalEdgeStyle;rounded=0;orthogonalLoop=1;jettySize=auto;html=1;entryX=1;entryY=0.5;entryDx=0;entryDy=0;" edge="1" parent="1" source="PEznFeICWbNwD7jS4ETO-30" target="PEznFeICWbNwD7jS4ETO-34">
          <mxGeometry relative="1" as="geometry">
            <Array as="points">
              <mxPoint x="610" y="670" />
            </Array>
          </mxGeometry>
        </mxCell>
        <mxCell id="PEznFeICWbNwD7jS4ETO-30" value="13" style="ellipse;whiteSpace=wrap;html=1;aspect=fixed;" vertex="1" parent="1">
          <mxGeometry x="590" y="580" width="40" height="40" as="geometry" />
        </mxCell>
        <mxCell id="PEznFeICWbNwD7jS4ETO-35" style="edgeStyle=orthogonalEdgeStyle;rounded=0;orthogonalLoop=1;jettySize=auto;html=1;" edge="1" parent="1" source="PEznFeICWbNwD7jS4ETO-31" target="PEznFeICWbNwD7jS4ETO-34">
          <mxGeometry relative="1" as="geometry">
            <Array as="points">
              <mxPoint x="500" y="670" />
            </Array>
          </mxGeometry>
        </mxCell>
        <mxCell id="PEznFeICWbNwD7jS4ETO-31" value="12" style="ellipse;whiteSpace=wrap;html=1;aspect=fixed;" vertex="1" parent="1">
          <mxGeometry x="480" y="580" width="40" height="40" as="geometry" />
        </mxCell>
        <mxCell id="PEznFeICWbNwD7jS4ETO-38" style="edgeStyle=orthogonalEdgeStyle;rounded=0;orthogonalLoop=1;jettySize=auto;html=1;" edge="1" parent="1" source="PEznFeICWbNwD7jS4ETO-34" target="PEznFeICWbNwD7jS4ETO-37">
          <mxGeometry relative="1" as="geometry">
            <Array as="points">
              <mxPoint x="500" y="680" />
            </Array>
          </mxGeometry>
        </mxCell>
        <mxCell id="PEznFeICWbNwD7jS4ETO-40" style="edgeStyle=orthogonalEdgeStyle;rounded=0;orthogonalLoop=1;jettySize=auto;html=1;" edge="1" parent="1" source="PEznFeICWbNwD7jS4ETO-34" target="PEznFeICWbNwD7jS4ETO-39">
          <mxGeometry relative="1" as="geometry">
            <Array as="points">
              <mxPoint x="610" y="680" />
            </Array>
          </mxGeometry>
        </mxCell>
        <mxCell id="PEznFeICWbNwD7jS4ETO-34" value="15" style="ellipse;whiteSpace=wrap;html=1;aspect=fixed;" vertex="1" parent="1">
          <mxGeometry x="540" y="650" width="40" height="40" as="geometry" />
        </mxCell>
        <mxCell id="PEznFeICWbNwD7jS4ETO-41" style="edgeStyle=orthogonalEdgeStyle;rounded=0;orthogonalLoop=1;jettySize=auto;html=1;" edge="1" parent="1" source="PEznFeICWbNwD7jS4ETO-37" target="PEznFeICWbNwD7jS4ETO-39">
          <mxGeometry relative="1" as="geometry" />
        </mxCell>
        <mxCell id="PEznFeICWbNwD7jS4ETO-37" value="16" style="ellipse;whiteSpace=wrap;html=1;aspect=fixed;" vertex="1" parent="1">
          <mxGeometry x="480" y="720" width="40" height="40" as="geometry" />
        </mxCell>
        <mxCell id="PEznFeICWbNwD7jS4ETO-42" style="edgeStyle=orthogonalEdgeStyle;rounded=0;orthogonalLoop=1;jettySize=auto;html=1;entryX=1;entryY=0.5;entryDx=0;entryDy=0;" edge="1" parent="1" source="PEznFeICWbNwD7jS4ETO-39" target="PEznFeICWbNwD7jS4ETO-7">
          <mxGeometry relative="1" as="geometry">
            <Array as="points">
              <mxPoint x="680" y="740" />
              <mxPoint x="680" y="50" />
            </Array>
          </mxGeometry>
        </mxCell>
        <mxCell id="PEznFeICWbNwD7jS4ETO-44" style="edgeStyle=orthogonalEdgeStyle;rounded=0;orthogonalLoop=1;jettySize=auto;html=1;" edge="1" parent="1" source="PEznFeICWbNwD7jS4ETO-39" target="PEznFeICWbNwD7jS4ETO-43">
          <mxGeometry relative="1" as="geometry" />
        </mxCell>
        <mxCell id="PEznFeICWbNwD7jS4ETO-39" value="17" style="ellipse;whiteSpace=wrap;html=1;aspect=fixed;" vertex="1" parent="1">
          <mxGeometry x="590" y="720" width="40" height="40" as="geometry" />
        </mxCell>
        <mxCell id="PEznFeICWbNwD7jS4ETO-47" style="edgeStyle=orthogonalEdgeStyle;rounded=0;orthogonalLoop=1;jettySize=auto;html=1;" edge="1" parent="1" source="PEznFeICWbNwD7jS4ETO-43" target="PEznFeICWbNwD7jS4ETO-46">
          <mxGeometry relative="1" as="geometry" />
        </mxCell>
        <mxCell id="PEznFeICWbNwD7jS4ETO-48" style="edgeStyle=orthogonalEdgeStyle;rounded=0;orthogonalLoop=1;jettySize=auto;html=1;" edge="1" parent="1" source="PEznFeICWbNwD7jS4ETO-43" target="PEznFeICWbNwD7jS4ETO-45">
          <mxGeometry relative="1" as="geometry" />
        </mxCell>
        <mxCell id="PEznFeICWbNwD7jS4ETO-43" value="18" style="ellipse;whiteSpace=wrap;html=1;aspect=fixed;" vertex="1" parent="1">
          <mxGeometry x="590" y="790" width="40" height="40" as="geometry" />
        </mxCell>
        <mxCell id="PEznFeICWbNwD7jS4ETO-50" style="edgeStyle=orthogonalEdgeStyle;rounded=0;orthogonalLoop=1;jettySize=auto;html=1;" edge="1" parent="1" source="PEznFeICWbNwD7jS4ETO-45" target="PEznFeICWbNwD7jS4ETO-4">
          <mxGeometry relative="1" as="geometry">
            <Array as="points">
              <mxPoint x="670" y="940" />
            </Array>
          </mxGeometry>
        </mxCell>
        <mxCell id="PEznFeICWbNwD7jS4ETO-45" value="20" style="ellipse;whiteSpace=wrap;html=1;aspect=fixed;" vertex="1" parent="1">
          <mxGeometry x="650" y="850" width="40" height="40" as="geometry" />
        </mxCell>
        <mxCell id="PEznFeICWbNwD7jS4ETO-49" style="edgeStyle=orthogonalEdgeStyle;rounded=0;orthogonalLoop=1;jettySize=auto;html=1;" edge="1" parent="1" source="PEznFeICWbNwD7jS4ETO-46" target="PEznFeICWbNwD7jS4ETO-4">
          <mxGeometry relative="1" as="geometry">
            <Array as="points">
              <mxPoint x="550" y="930" />
            </Array>
          </mxGeometry>
        </mxCell>
        <mxCell id="PEznFeICWbNwD7jS4ETO-46" value="19" style="ellipse;whiteSpace=wrap;html=1;aspect=fixed;" vertex="1" parent="1">
          <mxGeometry x="530" y="850" width="40" height="40" as="geometry" />
        </mxCell>
        <mxCell id="PEznFeICWbNwD7jS4ETO-53" style="edgeStyle=orthogonalEdgeStyle;rounded=0;orthogonalLoop=1;jettySize=auto;html=1;entryX=0.5;entryY=1;entryDx=0;entryDy=0;" edge="1" parent="1" source="PEznFeICWbNwD7jS4ETO-51" target="PEznFeICWbNwD7jS4ETO-4">
          <mxGeometry relative="1" as="geometry">
            <Array as="points">
              <mxPoint x="760" y="980" />
              <mxPoint x="410" y="980" />
            </Array>
          </mxGeometry>
        </mxCell>
        <mxCell id="PEznFeICWbNwD7jS4ETO-51" value="14" style="ellipse;whiteSpace=wrap;html=1;aspect=fixed;" vertex="1" parent="1">
          <mxGeometry x="740" y="580" width="40" height="40" as="geometry" />
        </mxCell>
      </root>
    </mxGraphModel>
  </diagram>
</mxfile>
